PathFileType	4	(X/Y/Z)	Patient4_TMGait_0pt4_01_right_40.trc.trc
DataRate	CameraRate	NumFrames	NumMarkers	Units	OrigDataRate	OrigDataStartFrame	OrigNumFrames
77.777777777778	77.777777777778	4	33	mm	77.777777777778	36	       141
Frame#	Time	Sacral			L.Shoulder			Chest			R.Shoulder			Neck			R.ASIS			L.ASIS			R.Thigh.Superior			R.Thigh.Lateral			R.Thigh.Inferior			R.Patella			L.Thigh.Superior			L.Thigh.Lateral			L.Thigh.Inferior			L.Patella			L.Shank.Superior			L.Shank.Lateral			L.Shank.Inferior			R.Shank.Superior			R.Shank.Lateral			R.Shank.Inferior			R.Heel			R.Midfoot.Superior			R.Midfoot.Lateral			R.Toe			L.Heel			L.Midfoot.Lateral			L.Midfoot.Superior			L.Toe			L.Elbow			L.Wrist			R.Elbow			R.Wrist			
		X1	Y1	Z1	X2	Y2	Z2	X3	Y3	Z3	X4	Y4	Z4	X5	Y5	Z5	X6	Y6	Z6	X7	Y7	Z7	X8	Y8	Z8	X9	Y9	Z9	X10	Y10	Z10	X11	Y11	Z11	X12	Y12	Z12	X13	Y13	Z13	X14	Y14	Z14	X15	Y15	Z15	X16	Y16	Z16	X17	Y17	Z17	X18	Y18	Z18	X19	Y19	Z19	X20	Y20	Z20	X21	Y21	Z21	X22	Y22	Z22	X23	Y23	Z23	X24	Y24	Z24	X25	Y25	Z25	X26	Y26	Z26	X27	Y27	Z27	X28	Y28	Z28	X29	Y29	Z29	X30	Y30	Z30	X31	Y31	Z31	X32	Y32	Z32	X33	Y33	Z33	

36	52.650000000000	839.804321538254	994.304089797923	486.738188635644	1018.012947281654	1432.314255128658	318.672781731359	1106.940723213929	1368.235522042898	489.406675196754	1001.544208132835	1435.212606036828	654.013234324452	978.578434438237	1490.971383447471	474.474846663947	1065.954245916354	941.824028520985	618.427489928394	1062.795930514406	960.425587934497	343.519877948485	1128.181519324155	747.724355991369	589.628115924646	1055.527296691539	631.935717050217	647.519942903165	1141.920813176038	586.868738968908	571.436594141574	1150.682076685790	497.526642761869	578.876025517675	1098.684936075101	737.058526661414	365.309087733785	1007.590065245067	625.487320454006	295.331736106515	1088.857377580638	539.622283614627	353.941281482828	1081.200737777915	458.544340110337	352.206506954702	1022.733701770752	396.753552318319	344.921981735120	892.615976224845	330.929596492665	292.864686684864	898.464310364050	203.386522862130	352.647681127255	1122.037098351286	406.707926811470	585.518196301229	1050.034274930132	302.746290447601	647.364934516878	1094.827297405620	207.842368789499	585.573979898626	963.795322494539	42.920386805206	553.489796996348	1133.093207103573	97.436540483530	592.987590655017	1045.450448030028	37.223495984338	630.749077761931	1253.308118173169	47.598411379457	623.848516632270	724.802972236032	94.677048110387	388.062743379362	793.455068938015	69.891693199281	308.113105851831	889.785749282028	109.180351046253	332.315020538866	998.034372307201	35.183993202762	303.246850149700	1063.885092442207	1086.127093378021	193.444706079368	1289.228741491197	954.361939446322	218.318575329536	950.528868748512	1089.572497962084	768.828380006173	1055.811498534432	850.597145248471	779.623843851036	
37	52.662857142857	839.137660668147	994.532757334929	490.711929113983	1015.925363224062	1432.761034420817	321.755030194527	1106.627431498598	1368.403805973962	491.488310768571	1003.059246846618	1435.271740218796	657.215269062362	978.246812899819	1491.272993738450	477.901102647976	1066.360244971051	942.180784388115	620.404914337529	1061.031054118270	960.645635906495	345.240369317752	1126.897452442548	747.192688530276	592.374441832681	1053.098325738518	631.773924629233	649.617990189624	1139.333877945651	586.287722017233	573.553458834240	1147.286297974424	497.004465208201	580.461002908963	1102.373556582895	739.588661159587	367.251981388052	1015.329033126772	625.769367646033	296.763806898316	1099.443288782616	541.600921980301	354.849089183490	1092.942088584410	459.325187762876	352.442236699471	1032.411415265059	397.521188466376	345.514278176623	899.947715103561	336.199181314912	293.769770848771	902.021328585759	208.387185166949	353.002731916771	1118.351211934673	406.282890014045	586.869782179220	1046.075921670203	302.401392053068	648.430946030066	1090.342218098547	207.552901110084	586.232727861146	958.622463959435	42.893606708088	553.694973852390	1127.977847874332	97.350646037833	593.311603632643	1040.292399710679	37.149604941620	630.986188784550	1248.191036694452	47.441044757703	624.108374339700	724.244934706631	106.856747070739	388.378438371286	791.722529874277	78.838879593113	308.403037154157	889.957345159167	113.511791772066	332.390995129710	994.028851163200	34.541763699563	303.437094899391	1059.161193497532	1085.654355562903	197.600931800287	1280.866108798249	946.730696624767	219.182843721560	958.106655097860	1089.099190942709	773.664168313509	1068.859467355081	852.672625626401	783.137448807624	
38	52.675714285714	838.302594750863	994.838491859315	494.609337610010	1013.635546809156	1433.169503916521	324.630776998531	1106.243664469487	1368.563767334538	493.282745213482	1004.671034000813	1435.351500246131	660.207548857108	977.913333733556	1491.589986772590	481.130484250935	1066.628039439683	942.535460286262	622.225182532215	1059.252856984256	960.916913201392	346.800750036144	1125.305485605796	746.611915383752	594.871176127137	1050.476586158555	631.625719128713	651.624499583166	1136.417009789347	585.706363564927	575.457419808509	1143.540798587422	496.487148801903	581.922979726939	1105.814202636580	742.351358707079	369.032970451252	1022.887221622679	626.458515118432	298.002474422840	1109.692661372207	544.106224750197	355.628699273321	1104.445655650622	460.754163760613	352.679325833670	1042.157126141189	398.797123790566	346.038327928793	907.594916607732	341.672822117122	294.678893563169	906.182746005849	213.689131385065	353.455321536144	1114.372417774162	405.878234666507	588.136021589179	1041.872638265851	302.046909916574	649.419121025311	1085.677846088897	207.269856071824	586.837505709814	953.356777624413	42.846380353824	553.869982493085	1122.769731682139	97.210514953804	593.558805600829	1035.050704967243	37.066318580477	631.190194525162	1242.991126921472	47.247818642229	624.322514413731	724.724308111493	119.019343647810	388.982014776911	790.954300949992	88.108676854018	308.860001487740	890.943391648308	118.252796012332	332.630786377469	990.926647324202	34.162268034775	303.520728049130	1054.195464560139	1085.123982082292	201.640785155763	1271.682168837169	938.702914875998	219.755323251385	965.904406252439	1088.823680964755	778.427792137260	1081.956606750129	855.009909651462	786.522143843569	
39	52.688571428571	837.332015877399	995.225356187134	498.393216759607	1011.210164026449	1433.555006426166	327.291859219874	1105.802656194234	1368.727677403549	494.805542585403	1006.347686395778	1435.468902340526	662.975684452192	977.579621376344	1491.933908938735	484.144269695958	1066.758088352540	942.887666840412	623.916267543488	1057.523334023102	961.281114113797	348.258668293292	1123.471228997968	746.023097640515	597.038031701166	1047.767066872855	631.515186716152	653.522570617018	1133.238573502777	585.145024683034	577.113940428796	1139.514906550198	495.991053909470	583.243353343809	1108.899775655424	745.321322858284	370.677636490303	1030.042812642187	627.580809081297	299.053386932158	1119.362352390142	547.127138995986	356.250501739016	1115.480750773593	462.825580725074	352.854846789615	1051.773045144277	400.578532255510	346.445159695665	915.383660980982	347.164374250862	295.584053193341	910.969877044074	219.058259458238	353.964556315292	1110.171688914154	405.508878697671	589.300246585325	1037.498880586245	301.704141408760	650.336787349191	1080.889424192003	207.006668748064	587.383118839960	948.039101485183	42.789940278983	554.023119076316	1117.502590327711	97.032765362678	593.729492829810	1029.764486457113	36.984905055736	631.367831021558	1237.745464734758	47.037208670545	624.493454903067	726.419281479366	130.527642479687	389.861372479703	791.389048861076	97.206627372786	309.462037721967	892.914192099649	123.180522990401	332.975538837623	989.130465529328	34.128799773046	303.408133988166	1048.977395023530	1084.552142925060	205.548299353032	1261.619238551492	930.368123945004	220.032665375439	973.884949983603	1088.754350487942	783.055104900271	1095.062822049007	857.610276903920	789.746895275713	
